HIERARCHY
ROOT joint_Root
{
	OFFSET 0.0 0.0 0.0
	CHANNELS 6 Xposition Yposition Zposition Zrotation Xrotation Yrotation 
	JOINT Hips
	{
		OFFSET 4.5925 91.4895 -427.239
		CHANNELS 6 Xposition Yposition Zposition Zrotation Xrotation Yrotation 
		JOINT Spine
		{
			OFFSET 15.7357 0.0 0.0
			CHANNELS 6 Xposition Yposition Zposition Zrotation Xrotation Yrotation 
			JOINT Chest
			{
				OFFSET 8.98455 -0.406207 0.0
				CHANNELS 6 Xposition Yposition Zposition Zrotation Xrotation Yrotation 
				JOINT Neck
				{
					OFFSET 16.3773 0.0 0.0
					CHANNELS 6 Xposition Yposition Zposition Zrotation Xrotation Yrotation 
					JOINT Head
					{
						OFFSET 6.45672 0.0 0.0
						CHANNELS 6 Xposition Yposition Zposition Zrotation Xrotation Yrotation 
						End Site
						{
							OFFSET 0.0 0.0 0.0
						}
					}
				}
				JOINT Shoulder_L
				{
					OFFSET 12.9942 -0.242716 4.98039
					CHANNELS 6 Xposition Yposition Zposition Zrotation Xrotation Yrotation 
					JOINT UpperArm_L
					{
						OFFSET 5.34809 0.0 0.0
						CHANNELS 6 Xposition Yposition Zposition Zrotation Xrotation Yrotation 
						JOINT LowerArm_L
						{
							OFFSET 24.3286 1.87007e-05 0.0
							CHANNELS 6 Xposition Yposition Zposition Zrotation Xrotation Yrotation 
							JOINT Hand_L
							{
								OFFSET 22.2916 0.0 0.0
								CHANNELS 6 Xposition Yposition Zposition Zrotation Xrotation Yrotation 
								End Site
								{
									OFFSET 0.0 0.0 0.0
								}
							}
						}
					}
				}
				JOINT Shoulder_R
				{
					OFFSET 12.9945 -0.242716 -4.98039
					CHANNELS 6 Xposition Yposition Zposition Zrotation Xrotation Yrotation 
					JOINT UpperArm_R
					{
						OFFSET -5.34813 0.0 0.0
						CHANNELS 6 Xposition Yposition Zposition Zrotation Xrotation Yrotation 
						JOINT LowerArm_R
						{
							OFFSET -24.3289 0.000322201 0.0
							CHANNELS 6 Xposition Yposition Zposition Zrotation Xrotation Yrotation 
							JOINT Hand_R
							{
								OFFSET -22.2915 -0.000108084 0.0
								CHANNELS 6 Xposition Yposition Zposition Zrotation Xrotation Yrotation 
								End Site
								{
									OFFSET 0.0 0.0 0.0
								}
							}
						}
					}
				}
			}
		}
		JOINT UpperLeg_L
		{
			OFFSET -2.19248 -6.46944 0.0
			CHANNELS 6 Xposition Yposition Zposition Zrotation Xrotation Yrotation 
			JOINT LowerLeg_L
			{
				OFFSET 39.0811 0.0 -1.23785e-05
				CHANNELS 6 Xposition Yposition Zposition Zrotation Xrotation Yrotation 
				JOINT Foot_L
				{
					OFFSET 40.9854 0.0 -1.26872e-05
					CHANNELS 6 Xposition Yposition Zposition Zrotation Xrotation Yrotation 
					JOINT Toes_L
					{
						OFFSET 11.7543 0.0 0.0
						CHANNELS 6 Xposition Yposition Zposition Zrotation Xrotation Yrotation 
						End Site
						{
							OFFSET 0.0 0.0 0.0
						}
					}
				}
			}
		}
		JOINT UpperLeg_R
		{
			OFFSET -2.19251 6.46944 0.0
			CHANNELS 6 Xposition Yposition Zposition Zrotation Xrotation Yrotation 
			JOINT LowerLeg_R
			{
				OFFSET -39.0811 -0.00228153 -0.0401928
				CHANNELS 6 Xposition Yposition Zposition Zrotation Xrotation Yrotation 
				JOINT Foot_R
				{
					OFFSET -40.9854 0.0 0.0
					CHANNELS 6 Xposition Yposition Zposition Zrotation Xrotation Yrotation 
					JOINT Toes_R
					{
						OFFSET -11.7543 0.0 0.0
						CHANNELS 6 Xposition Yposition Zposition Zrotation Xrotation Yrotation 
						End Site
						{
							OFFSET 0.0 0.0 0.0
						}
					}
				}
			}
		}
	}
}
MOTION
Frames:	7
Frame Time:	0.0333333
0.000000 0.000000 0.000000 0.000000 0.000000 -0.000000 -1.872870 91.663700 0.584064 88.580400 0.754275 6.455170 15.735700 0.000005 -0.000001 75.141800 86.891600 -75.223800 8.984550 -0.406207 -0.000000 -1.758360 -1.586990 -0.188285 16.377300 -0.000001 -0.000001 -2.318580 -3.377630 1.355270 6.456720 -0.000001 -0.000000 -0.574778 -3.208480 3.605770 12.994200 -0.242716 4.980390 -86.490600 -7.808710 -65.706600 5.348090 -0.000007 -0.000001 -37.946100 -53.669400 -45.143300 24.328600 0.000019 0.000005 3.062640 4.795570 -32.620200 22.291600 -0.000001 0.000005 15.340900 4.898770 9.406870 12.994500 -0.242716 -4.980390 91.814600 -5.508990 -71.736900 -5.348130 -0.000001 -0.000004 -29.057700 -51.750600 -37.137300 -24.328900 0.000322 -0.000009 -9.572800 -18.971900 -27.415200 -22.291500 -0.000108 -0.000004 19.895200 5.210120 2.482470 -2.192480 -6.469440 -0.000000 -173.532000 -11.328300 -1.020000 39.081100 -0.000007 -0.000012 -0.140457 0.289312 25.896100 40.985400 -0.000006 -0.000013 -0.074451 8.658330 -68.297000 11.754300 -0.000000 0.000003 -0.000096 -0.000997 -16.615800 -2.192510 6.469440 -0.000001 176.505000 22.608800 -178.207000 -39.081100 -0.002282 -0.040193 -0.067001 0.159178 23.832900 -40.985400 0.000008 0.000006 5.808500 14.251700 -69.636500 -11.754300 -0.000006 -0.000006 -0.001130 -0.017242 -17.274300
0.000000 0.000000 0.000000 0.000000 0.000000 -0.000000 -1.898910 91.616500 0.492945 88.535200 0.904356 6.600420 15.735700 0.000005 -0.000001 75.906200 86.694300 -75.984800 8.984550 -0.406207 -0.000000 -1.354800 -1.603350 -0.176193 16.377300 -0.000001 -0.000001 -2.722020 -2.975110 1.177370 6.456720 -0.000001 -0.000000 -0.958780 -2.853980 3.906240 12.994200 -0.242716 4.980390 -86.846500 -6.900210 -65.364400 5.348090 -0.000007 -0.000001 -46.293500 -55.786700 -47.859400 24.328600 0.000019 0.000005 3.186100 5.517090 -30.072100 22.291600 -0.000001 0.000005 15.325500 4.841440 10.518700 12.994500 -0.242716 -4.980390 91.515600 -4.531010 -71.482200 -5.348130 -0.000001 -0.000004 -33.633900 -53.687400 -36.581100 -24.328900 0.000322 -0.000009 -9.187540 -20.393300 -24.897900 -22.291500 -0.000108 -0.000004 18.857600 5.144050 4.073620 -2.192480 -6.469440 -0.000000 -173.499000 -11.041400 -1.161890 39.081100 -0.000007 -0.000012 -0.141948 0.287520 26.275600 40.985400 -0.000006 -0.000013 -0.096551 8.523080 -68.409800 11.754300 -0.000000 0.000003 -0.000103 -0.001059 -16.618200 -2.192510 6.469440 -0.000001 176.388000 22.796400 -178.168000 -39.081100 -0.002282 -0.040193 -0.096722 0.224538 24.014000 -40.985400 0.000008 0.000006 5.077090 14.484900 -69.475500 -11.754300 -0.000006 -0.000006 -0.001163 -0.017694 -17.292700
0.000000 0.000000 0.000000 0.000000 0.000000 -0.000000 -1.961240 91.598600 0.538628 88.489100 1.001020 6.681500 15.735700 0.000005 -0.000001 74.104900 86.791500 -74.160600 8.984550 -0.406207 -0.000000 -1.595390 -1.752540 -0.135731 16.377300 -0.000001 -0.000001 -2.291520 -3.000500 1.172090 6.456720 -0.000001 -0.000000 -0.726578 -2.972160 3.803380 12.994200 -0.242716 4.980390 -86.706500 -7.023810 -64.798700 5.348090 -0.000007 -0.000001 -55.088100 -58.901200 -56.324400 24.328600 0.000019 0.000005 3.808710 7.587330 -26.764000 22.291600 -0.000001 0.000005 18.256200 4.775020 11.779100 12.994500 -0.242716 -4.980390 91.636700 -4.763690 -71.013100 -5.348130 -0.000001 -0.000004 -42.609400 -58.364200 -44.090500 -24.328900 0.000322 -0.000009 -10.062400 -22.944300 -24.471800 -22.291500 -0.000108 -0.000004 24.074300 5.087530 5.393310 -2.192480 -6.469440 -0.000000 -173.451000 -10.670300 -1.130830 39.081100 -0.000007 -0.000012 -0.145105 0.292592 26.378300 40.985400 -0.000006 -0.000013 -0.191205 8.298920 -68.477300 11.754300 -0.000000 0.000003 -0.000103 -0.001058 -16.618100 -2.192510 6.469440 -0.000001 176.469000 22.669700 -178.061000 -39.081100 -0.002282 -0.040193 -0.100760 0.233217 24.049000 -40.985400 0.000008 0.000006 5.102030 14.259300 -69.546600 -11.754300 -0.000006 -0.000006 -0.001205 -0.018279 -17.316400
0.000000 0.000000 0.000000 0.000000 0.000000 -0.000000 -1.979090 91.636500 0.688338 88.516600 0.925234 6.612110 15.735700 0.000005 -0.000001 71.871500 87.108800 -71.912500 8.984550 -0.406207 -0.000000 -2.271800 -1.795050 -0.117612 16.377300 -0.000001 -0.000001 -1.360520 -2.823950 1.000080 6.456720 -0.000001 -0.000000 -0.232322 -2.898430 3.730170 12.994200 -0.242716 4.980390 -86.209600 -7.877350 -64.200900 5.348090 -0.000007 -0.000001 -61.039100 -60.947000 -65.863100 24.328600 0.000019 0.000005 4.533460 8.792190 -27.418900 22.291600 -0.000001 0.000005 19.466500 4.784880 11.602200 12.994500 -0.242716 -4.980390 92.029600 -5.791060 -70.648200 -5.348130 -0.000001 -0.000004 -48.693300 -61.448200 -52.699800 -24.328900 0.000322 -0.000009 -11.339500 -22.603400 -27.554100 -22.291500 -0.000108 -0.000004 28.020600 5.119300 4.668150 -2.192480 -6.469440 -0.000000 -173.463000 -10.648800 -0.896761 39.081100 -0.000007 -0.000012 -0.147850 0.302898 26.018000 40.985400 -0.000006 -0.000013 -0.253842 8.227650 -68.410100 11.754300 -0.000000 0.000003 -0.000108 -0.001096 -16.619500 -2.192510 6.469440 -0.000001 176.501000 22.647900 -177.900000 -39.081100 -0.002282 -0.040193 -0.077947 0.184371 23.785500 -40.985400 0.000008 0.000006 5.504020 14.229900 -69.637000 -11.754300 -0.000006 -0.000006 -0.000983 -0.015172 -17.190200
0.000000 0.000000 0.000000 0.000000 0.000000 -0.000000 -1.973140 91.667300 0.911710 88.587300 0.623235 6.548030 15.735700 0.000005 -0.000001 70.365000 87.469400 -70.426300 8.984550 -0.406207 -0.000000 -3.000570 -1.694250 -0.166968 16.377300 -0.000001 -0.000001 -0.327900 -2.539670 0.976694 6.456720 -0.000001 -0.000000 0.343913 -2.800290 3.691780 12.994200 -0.242716 4.980390 -85.679100 -8.663590 -63.362400 5.348090 -0.000007 -0.000001 -60.440300 -61.418900 -72.862600 24.328600 0.000019 0.000005 4.733590 7.617480 -31.993100 22.291600 -0.000001 0.000005 20.229600 4.894070 9.499200 12.994500 -0.242716 -4.980390 92.505700 -6.997660 -70.241900 -5.348130 -0.000001 -0.000004 -49.615300 -62.744000 -59.676400 -24.328900 0.000322 -0.000009 -12.475700 -19.820600 -33.125200 -22.291500 -0.000108 -0.000004 26.831900 5.200600 2.695620 -2.192480 -6.469440 -0.000000 -173.446000 -11.108100 -0.532291 39.081100 -0.000007 -0.000012 -0.143831 0.299950 25.618700 40.985400 -0.000006 -0.000013 -0.248510 8.380570 -68.391000 11.754300 -0.000000 0.000003 -0.000098 -0.001010 -16.616300 -2.192510 6.469440 -0.000001 176.415000 22.657600 -177.712000 -39.081100 -0.002282 -0.040193 -0.063307 0.152736 23.566500 -40.985400 0.000008 0.000006 5.940740 14.434600 -69.793500 -11.754300 -0.000006 -0.000006 -0.001008 -0.015516 -17.204100
0.000000 0.000000 0.000000 0.000000 0.000000 -0.000000 -1.958100 91.670100 1.162160 88.668500 0.405907 6.727320 15.735700 0.000005 -0.000001 70.438400 87.760000 -70.562000 8.984550 -0.406207 -0.000000 -3.546810 -1.486970 -0.293344 16.377300 -0.000001 -0.000001 0.703232 -2.688420 1.135360 6.456720 -0.000001 -0.000000 0.994467 -2.947950 3.641340 12.994200 -0.242716 4.980390 -85.088000 -9.497870 -62.488800 5.348090 -0.000007 -0.000001 -58.408000 -61.236400 -80.647600 24.328600 0.000019 0.000005 4.546050 5.660270 -38.886000 22.291600 -0.000001 0.000005 21.584500 4.986930 7.600760 12.994500 -0.242716 -4.980390 93.022700 -8.141230 -69.550900 -5.348130 -0.000001 -0.000004 -50.361000 -63.493000 -68.438700 -24.328900 0.000322 -0.000009 -14.019400 -16.610200 -41.142100 -22.291500 -0.000108 -0.000004 26.678800 5.273080 0.815229 -2.192480 -6.469440 -0.000000 -173.387000 -11.450300 0.043483 39.081100 -0.000007 -0.000012 -0.146013 0.308332 25.340500 40.985400 -0.000006 -0.000013 -0.239457 8.542290 -68.466400 11.754300 -0.000000 0.000003 -0.000109 -0.001108 -16.620000 -2.192510 6.469440 -0.000001 176.131000 22.728700 -177.235000 -39.081100 -0.002282 -0.040193 -0.060625 0.147601 23.422200 -40.985400 0.000008 0.000006 6.044090 14.722300 -69.942900 -11.754300 -0.000006 -0.000006 -0.001092 -0.016701 -17.252300
0.000000 0.000000 0.000000 0.000000 0.000000 -0.000000 -1.942010 91.644200 1.357070 88.735500 0.351668 6.999020 15.735700 0.000005 -0.000001 69.869400 87.860800 -70.016800 8.984550 -0.406207 -0.000000 -3.751370 -1.456800 -0.342506 16.377300 -0.000001 -0.000001 1.205680 -2.886230 1.282770 6.456720 -0.000001 -0.000000 1.636160 -3.210030 3.590570 12.994200 -0.242716 4.980390 -84.539500 -10.209500 -61.661300 5.348090 -0.000007 -0.000001 -57.058500 -61.632900 -89.581500 24.328600 0.000019 0.000005 4.668610 4.292750 -47.488300 22.291600 -0.000001 0.000005 22.007100 5.073960 5.704470 12.994500 -0.242716 -4.980390 93.492800 -9.150400 -69.002500 -5.348130 -0.000001 -0.000004 -51.052800 -64.289200 -78.620800 -24.328900 0.000322 -0.000009 -13.160600 -11.646100 -49.210300 -22.291500 -0.000108 -0.000004 27.700300 5.359980 -1.667260 -2.192480 -6.469440 -0.000000 -173.384000 -11.445600 0.502752 39.081100 -0.000007 -0.000012 -0.144536 0.305636 25.309700 40.985400 -0.000006 -0.000013 -0.244922 8.494060 -68.610900 11.754300 -0.000000 0.000003 -0.000102 -0.001044 -16.617600 -2.192510 6.469440 -0.000001 175.823000 22.780000 -176.790000 -39.081100 -0.002282 -0.040193 -0.065615 0.158812 23.462400 -40.985400 0.000008 0.000006 5.947510 14.912700 -70.084200 -11.754300 -0.000006 -0.000006 -0.001100 -0.016821 -17.257200
